<svg width="154" height="170" viewBox="0 0 154 170" fill="none" xmlns="http://www.w3.org/2000/svg">
<path d="M131.86 136.705C139.883 133.112 141.858 122.449 153.098 123.271C152.155 125.523 151.672 127.061 150.865 128.056C141.265 140.383 131.512 152.948 121.674 165.122C120.06 167.111 117.12 169.595 115.037 169.435C111.066 169.074 111.039 165.191 111.139 161.895C111.311 151.42 111.246 140.793 111.376 130.123C117.642 131.621 117.642 131.621 120.024 149.11C136.892 121.281 125.744 87.0812 95.727 76.235C94.7596 79.3112 93.9877 82.3447 93.0203 85.4209C90.0328 94.2586 85.0124 101.289 76.6154 105.986C70.5897 109.347 64.4009 110.083 58.405 106.071C52.3663 101.863 51.4361 95.7214 52.6139 88.9157C54.952 74.2848 65.4292 65.0408 80.2984 64.6618C82.1432 64.6686 83.9029 64.2847 86.4872 63.9255C83.892 45.4593 76.7074 29.427 62.6899 17.7505C41.1022 -0.460315 18.7488 9.73754 5.86045 24.8284C4.20366 26.6224 3.06576 28.9172 0.687129 32.0966C-0.0475694 25.9128 2.39871 22.1047 4.88762 18.4919C14.4948 4.32152 34.2315 -2.84964 50.7954 1.7225C61.2882 4.75411 70.0991 10.4038 76.8799 18.9522C86.7916 31.5245 93.3545 45.646 95.0045 61.6579C95.15 63.2634 95.4909 64.8262 95.7216 66.8223C109.285 72.663 121.778 80.1698 129.123 94.1206C135.992 107.766 133.178 122.092 131.86 136.705ZM86.7307 73.4909C71.8764 70.1829 60.5393 77.3634 59.4671 90.2856C59.1288 93.4291 60.4149 97.4461 62.5331 99.6445C65.4509 102.692 69.6669 101.362 73.0407 98.9891C82.0066 93.1447 85.8614 84.527 86.7307 73.4909Z" fill="#E3252F"/>
</svg>
