<svg width="925" height="66" viewBox="0 0 925 66" fill="none" xmlns="http://www.w3.org/2000/svg">
<path d="M1.53473 51.0295C33.122 51.0295 64.1461 58.1819 95.5119 60.7957C117.16 62.5998 139.599 60.98 161.296 60.98C193.973 60.98 226.65 60.98 259.327 60.98C286.447 60.98 315.331 63.7771 342.064 59.3216C362.068 55.9876 382.394 54.4646 402.504 51.9508C423.06 49.3813 443.635 42.7646 463.958 38.5913C478.527 35.5993 493.914 33.5366 507.722 27.8116C512.548 25.8105 521.28 24.7128 524.674 20.3487C527.033 17.3157 525.749 9.73017 525.596 5.88358C525.37 0.253576 501.579 1.95725 497.034 3.30381C489.37 5.57461 492.427 15.1191 492.427 21.915C492.427 42.211 519.988 44.3958 534.072 44.3958C564.353 44.3958 594.635 44.3958 624.917 44.3958C654.392 44.3958 682.594 40.3427 711.891 37.7621C762.967 33.2632 815.965 32.1286 867.046 36.4722C896.061 38.9395 922.52 47.1341 950.98 52.4115C972.374 56.3785 994.086 57.8143 1014.83 64.2968" stroke="#1542A9" stroke-width="3" stroke-linecap="round"/>
</svg>
