<svg width="35" height="35" viewBox="0 0 35 35" fill="none" xmlns="http://www.w3.org/2000/svg">
<path d="M33.075 24.0722C30.6833 24.0722 28.3694 23.6833 26.2111 22.9833C25.5306 22.75 24.7722 22.925 24.2472 23.45L21.1944 27.2806C15.6917 24.6556 10.5389 19.6972 7.79722 14L11.5889 10.7722C12.1139 10.2278 12.2694 9.46944 12.0556 8.78889C11.3361 6.63056 10.9667 4.31667 10.9667 1.925C10.9667 0.875 10.0917 0 9.04167 0H2.31389C1.26389 0 0 0.466667 0 1.925C0 19.9889 15.0306 35 33.075 35C34.4556 35 35 33.775 35 32.7056V25.9972C35 24.9472 34.125 24.0722 33.075 24.0722Z" fill="#1542A9"/>
</svg>
