<svg width="313" height="312" viewBox="0 0 313 312" fill="none" xmlns="http://www.w3.org/2000/svg">
<path d="M137.26 259.362L135.852 266.77L143.779 267.965L147.228 260.864L156.293 262.23L138.944 294.566L123.281 292.205L128.242 258.002L137.26 259.362ZM135.308 285.523L140.874 274.032L134.657 273.095L132.317 285.072L135.308 285.523Z" fill="white"/>
<path d="M57.488 254.976C54.4151 252.125 52.94 249.316 53.0629 246.549C53.1895 244.484 54.0689 242.571 55.7013 240.812C56.289 240.179 56.968 239.565 57.7382 238.97L66.3911 232.396C69.3197 230.181 72.4389 229.125 75.7487 229.227C79.0584 229.33 82.1677 230.73 85.0764 233.429L95.3157 242.93L67.3402 264.118L57.488 254.976ZM64.7979 251.544L67.085 253.666L82.9038 241.628L79.5611 238.527C78.4586 237.504 77.3303 237.002 76.1762 237.023C74.977 237.045 73.6289 237.628 72.1319 238.771L65.7572 243.594C65.1845 244.023 64.7023 244.449 64.3105 244.871C62.2428 247.1 62.4052 249.324 64.7979 251.544Z" fill="white"/>
<path d="M59.9696 199.67L72.0176 220.538L39.0398 232.539L26.9918 211.671L34.1486 209.091L41.8766 222.476L48.0404 220.192L41.6564 209.135L48.8132 206.555L55.1972 217.612L60.5408 215.636L52.8128 202.251L59.9696 199.67Z" fill="white"/>
<path d="M45.2593 186.899C47.4119 186.408 48.1357 184.618 47.4308 181.53C46.7187 178.41 45.3956 177.071 43.4613 177.512C42.4318 177.747 41.7105 178.47 41.2975 179.68C40.8844 180.89 40.634 182.31 40.5461 183.938C40.4511 185.535 40.2973 187.162 40.0847 188.819C39.8337 190.452 39.2209 191.937 38.2463 193.276C37.2405 194.621 35.8173 195.504 33.9766 195.924C26.146 197.712 21.0807 193.567 18.7807 183.49C17.9405 179.809 18.0087 176.872 18.9853 174.679C19.9237 172.463 21.6252 171.074 24.0898 170.511C24.9945 170.305 25.8965 170.23 26.7958 170.287C27.6568 170.321 28.2874 170.423 28.6875 170.594L29.3345 170.84L31.2251 179.123C30.3509 178.601 29.3678 178.464 28.2759 178.713C26.248 179.176 25.5367 180.733 26.142 183.385C26.9039 186.723 28.3456 188.15 30.467 187.666C31.5277 187.424 32.249 186.701 32.6309 185.498C33.0127 184.295 33.2199 182.902 33.2525 181.319C33.2468 179.712 33.3346 178.084 33.5161 176.434C33.6975 174.784 34.2912 173.287 35.297 171.941C36.2716 170.603 37.7416 169.709 39.7071 169.261C43.6692 168.356 46.8879 168.869 49.3634 170.798C51.8076 172.735 53.5922 176.168 54.7173 181.097C55.8424 186.027 55.7379 189.595 54.4038 191.803C53.3997 193.444 51.7433 194.528 49.4347 195.055C48.5611 195.254 47.5883 195.378 46.516 195.425L45.7352 195.456L43.8126 187.033L44.3956 186.998C44.7218 186.989 45.0097 186.956 45.2593 186.899Z" fill="white"/>
<path d="M17.4216 137.679L51.433 146.293L50.7838 154.957L16.776 146.295L17.4216 137.679Z" fill="white"/>
<path d="M57.9245 120.329C56.2643 124.559 54.1356 127.092 51.5383 127.929C49.7355 128.494 47.6426 128.308 45.2595 127.373C44.1574 126.94 42.9977 126.348 41.7806 125.595L33.458 120.524C26.0243 115.991 23.95 109.539 27.2352 101.169C28.5913 97.7131 30.3648 95.3841 32.5557 94.1813C34.7167 92.9669 37.0781 92.8624 39.6399 93.8678C40.6825 94.277 41.6815 94.841 42.637 95.5597C43.6041 96.2487 44.3032 96.8325 44.7341 97.311L45.363 98.0735L42.2591 105.982C41.4907 104.787 40.4065 103.914 39.0064 103.365C36.3255 102.313 34.5467 102.904 33.6698 105.138C32.4891 108.146 33.5244 110.632 36.7757 112.596L44.7584 117.482C45.5042 117.947 46.2644 118.331 47.0389 118.635C49.0943 119.442 50.5954 118.639 51.5424 116.226C52.501 113.783 51.8935 111.74 49.7198 110.096L48.2818 113.76L43.6728 110.92L48.32 99.0793L51.882 101.302L53.0901 102.034C59.5397 106.009 61.1511 112.108 57.9245 120.329Z" fill="white"/>
<path d="M57.4331 55.7622L80.6823 82.0385L75.2654 88.831L56.7086 81.7681L69.4595 96.1114L64.0426 102.904L40.8233 76.5901L46.3898 69.61L63.9111 75.9698L52.0461 62.5172L57.4331 55.7622Z" fill="white"/>
<path d="M105.275 63.5016L85.3663 77.0754L70.9347 45.0865L90.8437 31.5128L93.9514 38.4568L81.1811 47.1634L83.9192 53.1394L94.4686 45.9469L97.5763 52.8909L87.0269 60.0833L89.3973 65.2643L102.168 56.5576L105.275 63.5016Z" fill="white"/>
<path d="M119.812 21.114C123.298 20.0387 126.011 20.0392 127.95 21.1154C129.409 21.9378 130.412 23.2358 130.959 25.0093C131.148 25.6209 131.285 26.2819 131.37 26.9923L131.832 30.7681C132.078 32.8689 131.931 34.6723 131.391 36.1784C130.881 37.6751 130.156 38.8531 129.216 39.7125L137.521 51.8183L128.256 54.6762L120.597 43.5263L117.753 44.4035L119.678 57.322L110.872 60.0384L106.51 25.217L119.812 21.114ZM119.129 29.1607L115.689 30.2218L116.959 38.5706L120.169 37.5802C121.79 37.0803 122.834 36.3397 123.302 35.3583C123.76 34.3463 123.791 33.1982 123.394 31.9139C122.63 29.437 121.209 28.5193 119.129 29.1607Z" fill="white"/>
<path d="M205.025 25.0738L196.535 49.831L197.59 50.1564L213.281 27.6205L222.271 30.3935L200.755 59.9235L186.995 55.679L194.756 34.9161L182.087 54.1652L168.327 49.9207L178.835 16.9951L187.825 19.7682L179.289 44.5113L180.343 44.8367L196.081 22.3149L205.025 25.0738Z" fill="white"/>
<path d="M248.592 50.2179L224.126 75.3658L216.948 70.4716L225.802 61.404L218.069 56.1313L209.254 65.226L202.076 60.3319L226.581 35.2111L233.719 40.0781L223.358 50.6745L231.091 55.9472L241.453 45.3508L248.592 50.2179Z" fill="white"/>
<path d="M267.649 71.6272C272.457 77.6567 272.397 82.6367 267.468 86.5672C266.643 87.2256 265.685 87.8463 264.594 88.4293L256.041 93.1014C252.085 95.2742 248.47 96.0283 245.198 95.3635C241.926 94.6988 238.843 92.5526 235.95 88.9249C233.057 85.2972 231.88 82.1019 232.419 79.3391C232.792 77.4456 233.991 75.6908 236.018 74.0747C236.918 73.3565 237.986 72.6685 239.222 72.0107L247.775 67.3387C255.418 63.1675 262.042 64.597 267.649 71.6272ZM242.575 85.2994C243.572 86.5503 244.696 87.2917 245.945 87.5235C247.194 87.7553 248.814 87.323 250.804 86.2266L259.027 81.7565C259.587 81.4325 260.068 81.1109 260.468 80.7917C262.495 79.1756 262.69 77.3418 261.054 75.2903C258.949 72.7533 256.258 72.3818 252.982 74.1759L244.759 78.646C244.054 79.0447 243.363 79.5134 242.688 80.0521C240.936 81.4487 240.899 83.1978 242.575 85.2994Z" fill="white"/>
<path d="M294.832 141.061L278.702 147.42L296.041 157.191L296.719 166.238L261.8 162.742L261.15 154.078L280.842 156.068L268.706 149.565L268.236 143.294L279.576 139.171L259.884 137.181L259.239 128.566L294.157 132.062L294.832 141.061Z" fill="white"/>
<path d="M257.672 182.411L264.955 184.369L266.739 176.554L259.915 172.584L261.955 163.646L292.904 183.363L289.379 198.806L255.643 191.303L257.672 182.411ZM283.614 186.314L272.572 179.904L271.172 186.034L282.941 189.262L283.614 186.314Z" fill="white"/>
<path d="M274.416 230.018C272.32 233.648 269.909 235.711 267.184 236.207C265.143 236.543 263.083 236.112 261.004 234.912C260.256 234.48 259.506 233.954 258.755 233.336L250.421 226.362C247.609 224 245.885 221.194 245.249 217.945C244.612 214.695 245.286 211.352 247.27 207.916L254.254 195.819L281.136 218.378L274.416 230.018ZM269.443 223.655L271.003 220.953L255.747 208.209L253.467 212.159C252.715 213.461 252.477 214.673 252.754 215.793C253.043 216.957 253.911 218.142 255.358 219.347L261.479 224.489C262.025 224.952 262.547 225.327 263.046 225.615C265.679 227.135 267.811 226.482 269.443 223.655Z" fill="white"/>
<path d="M219.944 239.905L237.608 223.516L256.646 252.996L238.982 269.386L234.874 262.983L246.205 252.47L242.606 246.969L233.247 255.653L229.139 249.25L238.498 240.565L235.382 235.796L224.052 246.308L219.944 239.905Z" fill="white"/>
<path d="M210.767 257.089C209.809 255.099 207.903 254.792 205.048 256.166C202.165 257.555 201.154 259.143 202.015 260.93C202.473 261.882 203.338 262.424 204.61 262.557C205.882 262.691 207.321 262.619 208.928 262.342C210.507 262.08 212.127 261.868 213.79 261.706C215.437 261.588 217.022 261.854 218.544 262.507C220.079 263.188 221.257 264.379 222.076 266.08C225.561 273.317 222.647 279.177 213.335 283.662C209.933 285.3 207.054 285.887 204.7 285.423C202.33 285.001 200.597 283.652 199.5 281.374C199.097 280.538 198.824 279.675 198.68 278.786C198.521 277.939 198.48 277.301 198.558 276.873L198.654 276.187L206.309 272.501C205.994 273.47 206.079 274.459 206.565 275.468C207.468 277.342 209.144 277.689 211.595 276.508C214.68 275.023 215.75 273.3 214.806 271.339C214.334 270.359 213.469 269.817 212.211 269.712C210.953 269.607 209.549 269.715 207.998 270.036C206.433 270.399 204.826 270.676 203.177 270.866C201.528 271.056 199.936 270.811 198.4 270.13C196.879 269.477 195.68 268.243 194.806 266.426C193.042 262.765 192.826 259.513 194.156 256.67C195.5 253.856 198.45 251.352 203.006 249.159C207.561 246.965 211.063 246.273 213.513 247.082C215.336 247.696 216.761 249.07 217.789 251.203C218.177 252.01 218.514 252.931 218.799 253.966L219.003 254.72L211.219 258.469L211.055 257.909C210.974 257.593 210.878 257.319 210.767 257.089Z" fill="white"/>
</svg>
